# xmcd CD database file
#
# Track frame offsets:
#	150
#	39947
#	72819
#	123605
#	155021
#	183642
#	222847
#	257789
#	273179
#
# Disc length: 4051 seconds
#
# Revision: 0
# Processed by: cddbd v1.5.1PL0 Copyright (c) Steve Scherf et al.
# Submitted via: CDex 1.51
#
DISCID=820fd109
DTITLE=Claudio Capurro - The Aloofness
DYEAR=1900
DGENRE=Jazz
TTITLE0=The aloofness
TTITLE1=Dopodichè
TTITLE2=Gull'es flight (Pozza)
TTITLE3=Valse funebre
TTITLE4=Celine x
TTITLE5=Invitation (Webster/Kaper)
TTITLE6=Les nenuphars
TTITLE7=Inner urge (Henderson)
TTITLE8=Fade Blossom
EXTD=
EXTT0=
EXTT1=
EXTT2=
EXTT3=
EXTT4=
EXTT5=
EXTT6=
EXTT7=
EXTT8=
PLAYORDER=
